<svg version="1.2" xmlns="http://www.w3.org/2000/svg" viewBox="0 0 250 250" width="250" height="250">
	<title>3-svg</title>
	<style>
		.s0 { mix-blend-mode: multiply;fill: #ffffff } 
		.s1 { mix-blend-mode: multiply;fill: #f7fefe } 
		.s2 { mix-blend-mode: multiply;fill: #f0fcfd } 
		.s3 { mix-blend-mode: multiply;fill: #e8fbfc } 
		.s4 { mix-blend-mode: multiply;fill: #e0f9fa } 
		.s5 { mix-blend-mode: multiply;fill: #d9f8f9 } 
		.s6 { mix-blend-mode: multiply;fill: #d1f6f8 } 
		.s7 { mix-blend-mode: multiply;fill: #c9f5f7 } 
		.s8 { mix-blend-mode: multiply;fill: #c2f3f6 } 
		.s9 { mix-blend-mode: multiply;fill: #baf2f5 } 
		.s10 { mix-blend-mode: multiply;fill: #b3f0f3 } 
		.s11 { mix-blend-mode: multiply;fill: #abeff2 } 
		.s12 { mix-blend-mode: multiply;fill: #a3edf1 } 
		.s13 { mix-blend-mode: multiply;fill: #9cecf0 } 
		.s14 { mix-blend-mode: multiply;fill: #94eaef } 
		.s15 { mix-blend-mode: multiply;fill: #8ce9ee } 
		.s16 { mix-blend-mode: multiply;fill: #85e7ec } 
		.s17 { mix-blend-mode: multiply;fill: #7de6eb } 
		.s18 { mix-blend-mode: multiply;fill: #75e4ea } 
		.s19 { mix-blend-mode: multiply;fill: #6ee3e9 } 
		.s20 { mix-blend-mode: multiply;fill: #66e1e8 } 
		.s21 { mix-blend-mode: multiply;fill: #5ee0e7 } 
		.s22 { mix-blend-mode: multiply;fill: #57dee5 } 
		.s23 { mix-blend-mode: multiply;fill: #4fdde4 } 
		.s24 { mix-blend-mode: multiply;fill: #48dbe3 } 
		.s25 { mix-blend-mode: multiply;fill: #40dae2 } 
		.s26 { mix-blend-mode: multiply;fill: #38d8e1 } 
		.s27 { mix-blend-mode: multiply;fill: #31d7e0 } 
		.s28 { mix-blend-mode: multiply;fill: #29d5de } 
		.s29 { mix-blend-mode: multiply;fill: #21d4dd } 
		.s30 { mix-blend-mode: multiply;fill: #1ad2dc } 
		.s31 { mix-blend-mode: multiply;fill: #12d1db } 
		.s32 { fill: #12d1db } 
	</style>
	<g id="Layer 1">
		<g id="&lt;Group&gt;">
			<g id="&lt;Group&gt;">
				<g id="&lt;Group&gt;" style="opacity: .4">
					<path id="&lt;Path&gt;" class="s0" d="m206.7 148.1c0 56.9-46.1 103.1-103.1 103.1-56.9 0-103.1-46.2-103.1-103.1 0-57 46.2-103.1 103.1-103.1 57 0 103.1 46.1 103.1 103.1z"/>
					<path id="&lt;Path&gt;" class="s1" d="m208.1 146.7c0 56.9-46.1 103.1-103.1 103.1-56.9 0-103.1-46.2-103.1-103.1 0-57 46.2-103.1 103.1-103.1 57 0 103.1 46.1 103.1 103.1z"/>
					<path id="&lt;Path&gt;" class="s2" d="m209.5 145.3c0 56.9-46.1 103.1-103.1 103.1-56.9 0-103.1-46.2-103.1-103.1 0-57 46.2-103.1 103.1-103.1 57 0 103.1 46.1 103.1 103.1z"/>
					<path id="&lt;Path&gt;" class="s3" d="m210.9 143.9c0 56.9-46.2 103.1-103.1 103.1-56.9 0-103.1-46.2-103.1-103.1 0-57 46.2-103.1 103.1-103.1 56.9 0 103.1 46.1 103.1 103.1z"/>
					<path id="&lt;Path&gt;" class="s4" d="m212.3 142.5c0 56.9-46.2 103.1-103.1 103.1-56.9 0-103.1-46.2-103.1-103.1 0-56.9 46.2-103.1 103.1-103.1 56.9 0 103.1 46.2 103.1 103.1z"/>
					<path id="&lt;Path&gt;" class="s5" d="m213.7 141.1c0 56.9-46.2 103.1-103.1 103.1-57 0-103.1-46.2-103.1-103.1 0-56.9 46.1-103.1 103.1-103.1 56.9 0 103.1 46.2 103.1 103.1z"/>
					<path id="&lt;Path&gt;" class="s6" d="m215.1 139.7c0 57-46.2 103.1-103.1 103.1-57 0-103.1-46.1-103.1-103.1 0-56.9 46.1-103.1 103.1-103.1 56.9 0 103.1 46.2 103.1 103.1z"/>
					<path id="&lt;Path&gt;" class="s7" d="m216.5 138.3c0 57-46.2 103.1-103.1 103.1-57 0-103.1-46.1-103.1-103.1 0-56.9 46.1-103.1 103.1-103.1 56.9 0 103.1 46.2 103.1 103.1z"/>
					<path id="&lt;Path&gt;" class="s8" d="m217.9 136.9c0 57-46.2 103.1-103.1 103.1-57 0-103.1-46.1-103.1-103.1 0-56.9 46.1-103.1 103.1-103.1 56.9 0 103.1 46.2 103.1 103.1z"/>
					<path id="&lt;Path&gt;" class="s9" d="m219.3 135.5c0 57-46.2 103.1-103.1 103.1-57 0-103.1-46.1-103.1-103.1 0-56.9 46.1-103.1 103.1-103.1 56.9 0 103.1 46.2 103.1 103.1z"/>
					<path id="&lt;Path&gt;" class="s10" d="m220.7 134.1c0 57-46.2 103.1-103.1 103.1-57 0-103.1-46.1-103.1-103.1 0-56.9 46.1-103.1 103.1-103.1 56.9 0 103.1 46.2 103.1 103.1z"/>
					<path id="&lt;Path&gt;" class="s11" d="m222.1 132.7c0 57-46.2 103.1-103.1 103.1-57 0-103.2-46.1-103.2-103.1 0-56.9 46.2-103.1 103.2-103.1 56.9 0 103.1 46.2 103.1 103.1z"/>
					<path id="&lt;Path&gt;" class="s12" d="m223.5 131.3c0 57-46.2 103.2-103.2 103.2-56.9 0-103.1-46.2-103.1-103.2 0-56.9 46.2-103.1 103.1-103.1 57 0 103.2 46.2 103.2 103.1z"/>
					<path id="&lt;Path&gt;" class="s13" d="m224.8 130c0 56.9-46.1 103.1-103.1 103.1-56.9 0-103.1-46.2-103.1-103.1 0-57 46.2-103.2 103.1-103.2 57 0 103.1 46.2 103.1 103.2z"/>
					<path id="&lt;Path&gt;" class="s14" d="m226.2 128.6c0 56.9-46.1 103.1-103.1 103.1-56.9 0-103.1-46.2-103.1-103.1 0-57 46.2-103.1 103.1-103.1 57 0 103.1 46.1 103.1 103.1z"/>
					<path id="&lt;Path&gt;" class="s15" d="m227.6 127.2c0 56.9-46.1 103.1-103.1 103.1-56.9 0-103.1-46.2-103.1-103.1 0-57 46.2-103.1 103.1-103.1 57 0 103.1 46.1 103.1 103.1z"/>
					<path id="&lt;Path&gt;" class="s16" d="m229 125.8c0 56.9-46.1 103.1-103.1 103.1-56.9 0-103.1-46.2-103.1-103.1 0-57 46.2-103.1 103.1-103.1 57 0 103.1 46.1 103.1 103.1z"/>
					<path id="&lt;Path&gt;" class="s17" d="m230.4 124.4c0 56.9-46.1 103.1-103.1 103.1-56.9 0-103.1-46.2-103.1-103.1 0-57 46.2-103.1 103.1-103.1 57 0 103.1 46.1 103.1 103.1z"/>
					<path id="&lt;Path&gt;" class="s18" d="m231.8 123c0 56.9-46.1 103.1-103.1 103.1-56.9 0-103.1-46.2-103.1-103.1 0-57 46.2-103.1 103.1-103.1 57 0 103.1 46.1 103.1 103.1z"/>
					<path id="&lt;Path&gt;" class="s19" d="m233.2 121.6c0 56.9-46.2 103.1-103.1 103.1-56.9 0-103.1-46.2-103.1-103.1 0-57 46.2-103.1 103.1-103.1 56.9 0 103.1 46.1 103.1 103.1z"/>
					<path id="&lt;Path&gt;" class="s20" d="m234.6 120.2c0 56.9-46.2 103.1-103.1 103.1-56.9 0-103.1-46.2-103.1-103.1 0-56.9 46.2-103.1 103.1-103.1 56.9 0 103.1 46.2 103.1 103.1z"/>
					<path id="&lt;Path&gt;" class="s21" d="m236 118.8c0 56.9-46.2 103.1-103.1 103.1-57 0-103.1-46.2-103.1-103.1 0-56.9 46.1-103.1 103.1-103.1 56.9 0 103.1 46.2 103.1 103.1z"/>
					<path id="&lt;Path&gt;" class="s22" d="m237.4 117.4c0 57-46.2 103.1-103.1 103.1-57 0-103.1-46.1-103.1-103.1 0-56.9 46.1-103.1 103.1-103.1 56.9 0 103.1 46.2 103.1 103.1z"/>
					<path id="&lt;Path&gt;" class="s23" d="m238.8 116c0 57-46.2 103.1-103.1 103.1-57 0-103.1-46.1-103.1-103.1 0-56.9 46.1-103.1 103.1-103.1 56.9 0 103.1 46.2 103.1 103.1z"/>
					<path id="&lt;Path&gt;" class="s24" d="m240.2 114.6c0 57-46.2 103.1-103.1 103.1-57 0-103.1-46.1-103.1-103.1 0-56.9 46.1-103.1 103.1-103.1 56.9 0 103.1 46.2 103.1 103.1z"/>
					<path id="&lt;Path&gt;" class="s25" d="m241.6 113.2c0 57-46.2 103.1-103.1 103.1-57 0-103.1-46.1-103.1-103.1 0-56.9 46.1-103.1 103.1-103.1 56.9 0 103.1 46.2 103.1 103.1z"/>
					<path id="&lt;Path&gt;" class="s26" d="m243 111.8c0 57-46.2 103.1-103.1 103.1-57 0-103.1-46.1-103.1-103.1 0-56.9 46.1-103.1 103.1-103.1 56.9 0 103.1 46.2 103.1 103.1z"/>
					<path id="&lt;Path&gt;" class="s27" d="m244.4 110.4c0 57-46.2 103.1-103.1 103.1-57 0-103.1-46.1-103.1-103.1 0-56.9 46.1-103.1 103.1-103.1 56.9 0 103.1 46.2 103.1 103.1z"/>
					<path id="&lt;Path&gt;" class="s28" d="m245.8 109c0 57-46.2 103.2-103.2 103.2-56.9 0-103.1-46.2-103.1-103.2 0-56.9 46.2-103.1 103.1-103.1 57 0 103.2 46.2 103.2 103.1z"/>
					<path id="&lt;Path&gt;" class="s29" d="m247.1 107.7c0 56.9-46.1 103.1-103.1 103.1-56.9 0-103.1-46.2-103.1-103.1 0-57 46.2-103.2 103.1-103.2 57 0 103.1 46.2 103.1 103.2z"/>
					<path id="&lt;Path&gt;" class="s30" d="m248.5 106.3c0 56.9-46.1 103.1-103.1 103.1-56.9 0-103.1-46.2-103.1-103.1 0-57 46.2-103.1 103.1-103.1 57 0 103.1 46.1 103.1 103.1z"/>
					<path id="&lt;Path&gt;" class="s31" d="m249.9 104.9c0 56.9-46.1 103.1-103.1 103.1-56.9 0-103.1-46.2-103.1-103.1 0-57 46.2-103.1 103.1-103.1 57 0 103.1 46.1 103.1 103.1z"/>
				</g>
				<path id="&lt;Path&gt;" class="s32" d="m249.9 104.9c0 56.9-46.1 103.1-103.1 103.1-56.9 0-103.1-46.2-103.1-103.1 0-57 46.2-103.1 103.1-103.1 57 0 103.1 46.1 103.1 103.1z"/>
			</g>
		</g>
	</g>
</svg>