<svg version="1.2" xmlns="http://www.w3.org/2000/svg" viewBox="0 0 250 250" width="250" height="250">
	<title>green-svg</title>
	<style>
		.s0 { opacity: .5;mix-blend-mode: multiply;fill: #daf6d6 } 
		.s1 { opacity: .7;mix-blend-mode: multiply;fill: #d6f5d1 } 
		.s2 { mix-blend-mode: multiply;fill: #d1f3cc } 
		.s3 { mix-blend-mode: multiply;fill: #cdf2c7 } 
		.s4 { mix-blend-mode: multiply;fill: #c8f1c1 } 
		.s5 { mix-blend-mode: multiply;fill: #c3f0bc } 
		.s6 { mix-blend-mode: multiply;fill: #bfefb7 } 
		.s7 { mix-blend-mode: multiply;fill: #baeeb2 } 
		.s8 { mix-blend-mode: multiply;fill: #b6ecad } 
		.s9 { mix-blend-mode: multiply;fill: #b1eba8 } 
		.s10 { mix-blend-mode: multiply;fill: #adeaa3 } 
		.s11 { mix-blend-mode: multiply;fill: #a8e99e } 
		.s12 { mix-blend-mode: multiply;fill: #a3e898 } 
		.s13 { mix-blend-mode: multiply;fill: #9fe793 } 
		.s14 { mix-blend-mode: multiply;fill: #9ae58e } 
		.s15 { mix-blend-mode: multiply;fill: #96e489 } 
		.s16 { mix-blend-mode: multiply;fill: #91e384 } 
		.s17 { mix-blend-mode: multiply;fill: #8ce27f } 
		.s18 { mix-blend-mode: multiply;fill: #88e17a } 
		.s19 { mix-blend-mode: multiply;fill: #83e075 } 
		.s20 { mix-blend-mode: multiply;fill: #7fde6f } 
		.s21 { mix-blend-mode: multiply;fill: #7add6a } 
		.s22 { mix-blend-mode: multiply;fill: #76dc65 } 
		.s23 { mix-blend-mode: multiply;fill: #71db60 } 
		.s24 { fill: #71db60 } 
	</style>
	<g id="Layer 1">
		<g id="&lt;Group&gt;">
			<g id="&lt;Group&gt;">
				<g id="&lt;Group&gt;" style="opacity: .4">
					<path id="&lt;Path&gt;" class="s0" d="m216.4 135.9c0 57-46.2 103.1-103.1 103.1-57 0-103.1-46.1-103.1-103.1 0-56.9 46.1-103.1 103.1-103.1 56.9 0 103.1 46.2 103.1 103.1z"/>
					<path id="&lt;Path&gt;" class="s1" d="m217.8 134.5c0 57-46.2 103.1-103.1 103.1-57 0-103.2-46.1-103.2-103.1 0-56.9 46.2-103.1 103.2-103.1 56.9 0 103.1 46.2 103.1 103.1z"/>
					<path id="&lt;Path&gt;" class="s2" d="m219.2 133.1c0 57-46.2 103.1-103.2 103.1-56.9 0-103.1-46.1-103.1-103.1 0-56.9 46.2-103.1 103.1-103.1 57 0 103.2 46.2 103.2 103.1z"/>
					<path id="&lt;Path&gt;" class="s3" d="m220.5 131.7c0 57-46.1 103.1-103.1 103.1-56.9 0-103.1-46.1-103.1-103.1 0-56.9 46.2-103.1 103.1-103.1 57 0 103.1 46.2 103.1 103.1z"/>
					<path id="&lt;Path&gt;" class="s4" d="m221.9 130.3c0 57-46.1 103.2-103.1 103.2-56.9 0-103.1-46.2-103.1-103.2 0-56.9 46.2-103.1 103.1-103.1 57 0 103.1 46.2 103.1 103.1z"/>
					<path id="&lt;Path&gt;" class="s5" d="m223.3 129c0 56.9-46.1 103.1-103.1 103.1-56.9 0-103.1-46.2-103.1-103.1 0-57 46.2-103.2 103.1-103.2 57 0 103.1 46.2 103.1 103.2z"/>
					<path id="&lt;Path&gt;" class="s6" d="m224.7 127.6c0 56.9-46.1 103.1-103.1 103.1-56.9 0-103.1-46.2-103.1-103.1 0-57 46.2-103.1 103.1-103.1 57 0 103.1 46.1 103.1 103.1z"/>
					<path id="&lt;Path&gt;" class="s7" d="m226.1 126.2c0 56.9-46.1 103.1-103.1 103.1-56.9 0-103.1-46.2-103.1-103.1 0-57 46.2-103.1 103.1-103.1 57 0 103.1 46.1 103.1 103.1z"/>
					<path id="&lt;Path&gt;" class="s8" d="m227.5 124.8c0 56.9-46.1 103.1-103.1 103.1-56.9 0-103.1-46.2-103.1-103.1 0-57 46.2-103.1 103.1-103.1 57 0 103.1 46.1 103.1 103.1z"/>
					<path id="&lt;Path&gt;" class="s9" d="m228.9 123.4c0 56.9-46.2 103.1-103.1 103.1-56.9 0-103.1-46.2-103.1-103.1 0-57 46.2-103.1 103.1-103.1 56.9 0 103.1 46.1 103.1 103.1z"/>
					<path id="&lt;Path&gt;" class="s10" d="m230.3 122c0 56.9-46.2 103.1-103.1 103.1-56.9 0-103.1-46.2-103.1-103.1 0-57 46.2-103.1 103.1-103.1 56.9 0 103.1 46.1 103.1 103.1z"/>
					<path id="&lt;Path&gt;" class="s11" d="m231.7 120.6c0 56.9-46.2 103.1-103.1 103.1-57 0-103.1-46.2-103.1-103.1 0-57 46.1-103.1 103.1-103.1 56.9 0 103.1 46.1 103.1 103.1z"/>
					<path id="&lt;Path&gt;" class="s12" d="m233.1 119.2c0 56.9-46.2 103.1-103.1 103.1-57 0-103.1-46.2-103.1-103.1 0-56.9 46.1-103.1 103.1-103.1 56.9 0 103.1 46.2 103.1 103.1z"/>
					<path id="&lt;Path&gt;" class="s13" d="m234.5 117.8c0 56.9-46.2 103.1-103.1 103.1-57 0-103.1-46.2-103.1-103.1 0-56.9 46.1-103.1 103.1-103.1 56.9 0 103.1 46.2 103.1 103.1z"/>
					<path id="&lt;Path&gt;" class="s14" d="m235.9 116.4c0 57-46.2 103.1-103.1 103.1-57 0-103.1-46.1-103.1-103.1 0-56.9 46.1-103.1 103.1-103.1 56.9 0 103.1 46.2 103.1 103.1z"/>
					<path id="&lt;Path&gt;" class="s15" d="m237.3 115c0 57-46.2 103.1-103.1 103.1-57 0-103.1-46.1-103.1-103.1 0-56.9 46.1-103.1 103.1-103.1 56.9 0 103.1 46.2 103.1 103.1z"/>
					<path id="&lt;Path&gt;" class="s16" d="m238.7 113.6c0 57-46.2 103.1-103.1 103.1-57 0-103.1-46.1-103.1-103.1 0-56.9 46.1-103.1 103.1-103.1 56.9 0 103.1 46.2 103.1 103.1z"/>
					<path id="&lt;Path&gt;" class="s17" d="m240.1 112.2c0 57-46.2 103.1-103.1 103.1-57 0-103.1-46.1-103.1-103.1 0-56.9 46.1-103.1 103.1-103.1 56.9 0 103.1 46.2 103.1 103.1z"/>
					<path id="&lt;Path&gt;" class="s18" d="m241.5 110.8c0 57-46.2 103.1-103.1 103.1-57 0-103.2-46.1-103.2-103.1 0-56.9 46.2-103.1 103.2-103.1 56.9 0 103.1 46.2 103.1 103.1z"/>
					<path id="&lt;Path&gt;" class="s19" d="m242.9 109.4c0 57-46.2 103.1-103.2 103.1-56.9 0-103.1-46.1-103.1-103.1 0-56.9 46.2-103.1 103.1-103.1 57 0 103.2 46.2 103.2 103.1z"/>
					<path id="&lt;Path&gt;" class="s20" d="m244.2 108c0 57-46.1 103.2-103.1 103.2-56.9 0-103.1-46.2-103.1-103.2 0-56.9 46.2-103.1 103.1-103.1 57 0 103.1 46.2 103.1 103.1z"/>
					<path id="&lt;Path&gt;" class="s21" d="m245.6 106.7c0 56.9-46.1 103.1-103.1 103.1-56.9 0-103.1-46.2-103.1-103.1 0-57 46.2-103.2 103.1-103.2 57 0 103.1 46.2 103.1 103.2z"/>
					<path id="&lt;Path&gt;" class="s22" d="m247 105.3c0 56.9-46.1 103.1-103.1 103.1-56.9 0-103.1-46.2-103.1-103.1 0-57 46.2-103.1 103.1-103.1 57 0 103.1 46.1 103.1 103.1z"/>
					<path id="&lt;Path&gt;" class="s23" d="m248.4 103.9c0 56.9-46.1 103.1-103.1 103.1-56.9 0-103.1-46.2-103.1-103.1 0-57 46.2-103.1 103.1-103.1 57 0 103.1 46.1 103.1 103.1z"/>
				</g>
				<path id="&lt;Path&gt;" class="s24" d="m248.4 103.9c0 56.9-46.1 103.1-103.1 103.1-56.9 0-103.1-46.2-103.1-103.1 0-57 46.2-103.1 103.1-103.1 57 0 103.1 46.1 103.1 103.1z"/>
			</g>
		</g>
	</g>
</svg>