<svg version="1.2" xmlns="http://www.w3.org/2000/svg" viewBox="0 0 250 250" width="250" height="250">
	<title>1-svg</title>
	<style>
		.s0 { mix-blend-mode: multiply;fill: #ffffff } 
		.s1 { mix-blend-mode: multiply;fill: #fffcf7 } 
		.s2 { mix-blend-mode: multiply;fill: #fff8ef } 
		.s3 { mix-blend-mode: multiply;fill: #fff5e6 } 
		.s4 { mix-blend-mode: multiply;fill: #fff2de } 
		.s5 { mix-blend-mode: multiply;fill: #ffefd6 } 
		.s6 { mix-blend-mode: multiply;fill: #ffebce } 
		.s7 { mix-blend-mode: multiply;fill: #ffe8c5 } 
		.s8 { mix-blend-mode: multiply;fill: #ffe5bd } 
		.s9 { mix-blend-mode: multiply;fill: #ffe1b5 } 
		.s10 { mix-blend-mode: multiply;fill: #ffdead } 
		.s11 { mix-blend-mode: multiply;fill: #ffdba5 } 
		.s12 { mix-blend-mode: multiply;fill: #ffd89c } 
		.s13 { mix-blend-mode: multiply;fill: #ffd494 } 
		.s14 { mix-blend-mode: multiply;fill: #ffd18c } 
		.s15 { mix-blend-mode: multiply;fill: #ffce84 } 
		.s16 { mix-blend-mode: multiply;fill: #ffca7b } 
		.s17 { mix-blend-mode: multiply;fill: #ffc773 } 
		.s18 { mix-blend-mode: multiply;fill: #ffc46b } 
		.s19 { mix-blend-mode: multiply;fill: #ffc063 } 
		.s20 { mix-blend-mode: multiply;fill: #ffbd5a } 
		.s21 { mix-blend-mode: multiply;fill: #ffba52 } 
		.s22 { mix-blend-mode: multiply;fill: #ffb74a } 
		.s23 { mix-blend-mode: multiply;fill: #ffb342 } 
		.s24 { mix-blend-mode: multiply;fill: #ffb03a } 
		.s25 { mix-blend-mode: multiply;fill: #ffad31 } 
		.s26 { mix-blend-mode: multiply;fill: #ffa929 } 
		.s27 { mix-blend-mode: multiply;fill: #ffa621 } 
		.s28 { mix-blend-mode: multiply;fill: #ffa319 } 
		.s29 { mix-blend-mode: multiply;fill: #ffa010 } 
		.s30 { mix-blend-mode: multiply;fill: #ff9c08 } 
		.s31 { mix-blend-mode: multiply;fill: #ff9900 } 
		.s32 { fill: #ff9900 } 
	</style>
	<g id="Layer 1">
		<g id="&lt;Group&gt;">
			<g id="&lt;Group&gt;">
				<g id="&lt;Group&gt;" style="opacity: .4">
					<path id="&lt;Path&gt;" class="s0" d="m206.7 147.1c0 56.9-46.2 103.1-103.1 103.1-56.9 0-103.1-46.2-103.1-103.1 0-57 46.2-103.1 103.1-103.1 56.9 0 103.1 46.1 103.1 103.1z"/>
					<path id="&lt;Path&gt;" class="s1" d="m208.1 145.7c0 56.9-46.2 103.1-103.1 103.1-57 0-103.1-46.2-103.1-103.1 0-57 46.1-103.1 103.1-103.1 56.9 0 103.1 46.1 103.1 103.1z"/>
					<path id="&lt;Path&gt;" class="s2" d="m209.5 144.3c0 56.9-46.2 103.1-103.1 103.1-57 0-103.1-46.2-103.1-103.1 0-57 46.1-103.1 103.1-103.1 56.9 0 103.1 46.1 103.1 103.1z"/>
					<path id="&lt;Path&gt;" class="s3" d="m210.9 142.9c0 56.9-46.2 103.1-103.1 103.1-57 0-103.1-46.2-103.1-103.1 0-57 46.1-103.1 103.1-103.1 56.9 0 103.1 46.1 103.1 103.1z"/>
					<path id="&lt;Path&gt;" class="s4" d="m212.3 141.5c0 56.9-46.2 103.1-103.1 103.1-57 0-103.1-46.2-103.1-103.1 0-56.9 46.1-103.1 103.1-103.1 56.9 0 103.1 46.2 103.1 103.1z"/>
					<path id="&lt;Path&gt;" class="s5" d="m213.7 140.1c0 56.9-46.2 103.1-103.1 103.1-57 0-103.1-46.2-103.1-103.1 0-56.9 46.1-103.1 103.1-103.1 56.9 0 103.1 46.2 103.1 103.1z"/>
					<path id="&lt;Path&gt;" class="s6" d="m215.1 138.7c0 57-46.2 103.1-103.1 103.1-57 0-103.1-46.1-103.1-103.1 0-56.9 46.1-103.1 103.1-103.1 56.9 0 103.1 46.2 103.1 103.1z"/>
					<path id="&lt;Path&gt;" class="s7" d="m216.5 137.3c0 57-46.2 103.1-103.1 103.1-57 0-103.2-46.1-103.2-103.1 0-56.9 46.2-103.1 103.2-103.1 56.9 0 103.1 46.2 103.1 103.1z"/>
					<path id="&lt;Path&gt;" class="s8" d="m217.9 135.9c0 57-46.2 103.1-103.2 103.1-56.9 0-103.1-46.1-103.1-103.1 0-56.9 46.2-103.1 103.1-103.1 57 0 103.2 46.2 103.2 103.1z"/>
					<path id="&lt;Path&gt;" class="s9" d="m219.2 134.5c0 57-46.1 103.1-103.1 103.1-56.9 0-103.1-46.1-103.1-103.1 0-56.9 46.2-103.1 103.1-103.1 57 0 103.1 46.2 103.1 103.1z"/>
					<path id="&lt;Path&gt;" class="s10" d="m220.6 133.1c0 57-46.1 103.1-103.1 103.1-56.9 0-103.1-46.1-103.1-103.1 0-56.9 46.2-103.1 103.1-103.1 57 0 103.1 46.2 103.1 103.1z"/>
					<path id="&lt;Path&gt;" class="s11" d="m222 131.7c0 57-46.1 103.1-103.1 103.1-56.9 0-103.1-46.1-103.1-103.1 0-56.9 46.2-103.1 103.1-103.1 57 0 103.1 46.2 103.1 103.1z"/>
					<path id="&lt;Path&gt;" class="s12" d="m223.4 130.3c0 57-46.1 103.2-103.1 103.2-56.9 0-103.1-46.2-103.1-103.2 0-56.9 46.2-103.1 103.1-103.1 57 0 103.1 46.2 103.1 103.1z"/>
					<path id="&lt;Path&gt;" class="s13" d="m224.8 129c0 56.9-46.1 103.1-103.1 103.1-56.9 0-103.1-46.2-103.1-103.1 0-57 46.2-103.2 103.1-103.2 57 0 103.1 46.2 103.1 103.2z"/>
					<path id="&lt;Path&gt;" class="s14" d="m226.2 127.6c0 56.9-46.1 103.1-103.1 103.1-56.9 0-103.1-46.2-103.1-103.1 0-57 46.2-103.1 103.1-103.1 57 0 103.1 46.1 103.1 103.1z"/>
					<path id="&lt;Path&gt;" class="s15" d="m227.6 126.2c0 56.9-46.1 103.1-103.1 103.1-56.9 0-103.1-46.2-103.1-103.1 0-57 46.2-103.1 103.1-103.1 57 0 103.1 46.1 103.1 103.1z"/>
					<path id="&lt;Path&gt;" class="s16" d="m229 124.8c0 56.9-46.2 103.1-103.1 103.1-56.9 0-103.1-46.2-103.1-103.1 0-57 46.2-103.1 103.1-103.1 56.9 0 103.1 46.1 103.1 103.1z"/>
					<path id="&lt;Path&gt;" class="s17" d="m230.4 123.4c0 56.9-46.2 103.1-103.1 103.1-56.9 0-103.1-46.2-103.1-103.1 0-57 46.2-103.1 103.1-103.1 56.9 0 103.1 46.1 103.1 103.1z"/>
					<path id="&lt;Path&gt;" class="s18" d="m231.8 122c0 56.9-46.2 103.1-103.1 103.1-57 0-103.1-46.2-103.1-103.1 0-57 46.1-103.1 103.1-103.1 56.9 0 103.1 46.1 103.1 103.1z"/>
					<path id="&lt;Path&gt;" class="s19" d="m233.2 120.6c0 56.9-46.2 103.1-103.1 103.1-57 0-103.1-46.2-103.1-103.1 0-57 46.1-103.1 103.1-103.1 56.9 0 103.1 46.1 103.1 103.1z"/>
					<path id="&lt;Path&gt;" class="s20" d="m234.6 119.2c0 56.9-46.2 103.1-103.1 103.1-57 0-103.1-46.2-103.1-103.1 0-56.9 46.1-103.1 103.1-103.1 56.9 0 103.1 46.2 103.1 103.1z"/>
					<path id="&lt;Path&gt;" class="s21" d="m236 117.8c0 56.9-46.2 103.1-103.1 103.1-57 0-103.1-46.2-103.1-103.1 0-56.9 46.1-103.1 103.1-103.1 56.9 0 103.1 46.2 103.1 103.1z"/>
					<path id="&lt;Path&gt;" class="s22" d="m237.4 116.4c0 57-46.2 103.1-103.1 103.1-57 0-103.1-46.1-103.1-103.1 0-56.9 46.1-103.1 103.1-103.1 56.9 0 103.1 46.2 103.1 103.1z"/>
					<path id="&lt;Path&gt;" class="s23" d="m238.8 115c0 57-46.2 103.1-103.1 103.1-57 0-103.1-46.1-103.1-103.1 0-56.9 46.1-103.1 103.1-103.1 56.9 0 103.1 46.2 103.1 103.1z"/>
					<path id="&lt;Path&gt;" class="s24" d="m240.2 113.6c0 57-46.2 103.1-103.1 103.1-57 0-103.2-46.1-103.2-103.1 0-56.9 46.2-103.1 103.2-103.1 56.9 0 103.1 46.2 103.1 103.1z"/>
					<path id="&lt;Path&gt;" class="s25" d="m241.6 112.2c0 57-46.2 103.1-103.2 103.1-56.9 0-103.1-46.1-103.1-103.1 0-56.9 46.2-103.1 103.1-103.1 57 0 103.2 46.2 103.2 103.1z"/>
					<path id="&lt;Path&gt;" class="s26" d="m242.9 110.8c0 57-46.1 103.1-103.1 103.1-56.9 0-103.1-46.1-103.1-103.1 0-56.9 46.2-103.1 103.1-103.1 57 0 103.1 46.2 103.1 103.1z"/>
					<path id="&lt;Path&gt;" class="s27" d="m244.3 109.4c0 57-46.1 103.1-103.1 103.1-56.9 0-103.1-46.1-103.1-103.1 0-56.9 46.2-103.1 103.1-103.1 57 0 103.1 46.2 103.1 103.1z"/>
					<path id="&lt;Path&gt;" class="s28" d="m245.7 108c0 57-46.1 103.2-103.1 103.2-56.9 0-103.1-46.2-103.1-103.2 0-56.9 46.2-103.1 103.1-103.1 57 0 103.1 46.2 103.1 103.1z"/>
					<path id="&lt;Path&gt;" class="s29" d="m247.1 106.7c0 56.9-46.1 103.1-103.1 103.1-56.9 0-103.1-46.2-103.1-103.1 0-57 46.2-103.2 103.1-103.2 57 0 103.1 46.2 103.1 103.2z"/>
					<path id="&lt;Path&gt;" class="s30" d="m248.5 105.3c0 56.9-46.1 103.1-103.1 103.1-56.9 0-103.1-46.2-103.1-103.1 0-57 46.2-103.1 103.1-103.1 57 0 103.1 46.1 103.1 103.1z"/>
					<path id="&lt;Path&gt;" class="s31" d="m249.9 103.9c0 56.9-46.1 103.1-103.1 103.1-56.9 0-103.1-46.2-103.1-103.1 0-57 46.2-103.1 103.1-103.1 57 0 103.1 46.1 103.1 103.1z"/>
				</g>
				<path id="&lt;Path&gt;" class="s32" d="m249.9 103.9c0 56.9-46.1 103.1-103.1 103.1-56.9 0-103.1-46.2-103.1-103.1 0-57 46.2-103.1 103.1-103.1 57 0 103.1 46.1 103.1 103.1z"/>
			</g>
		</g>
	</g>
</svg>