<svg version="1.2" xmlns="http://www.w3.org/2000/svg" viewBox="0 0 250 250" width="250" height="250">
	<title>5-svg</title>
	<style>
		.s0 { mix-blend-mode: multiply;fill: #ffffff } 
		.s1 { mix-blend-mode: multiply;fill: #fcfafe } 
		.s2 { mix-blend-mode: multiply;fill: #f9f5fd } 
		.s3 { mix-blend-mode: multiply;fill: #f6f0fc } 
		.s4 { mix-blend-mode: multiply;fill: #f4eafa } 
		.s5 { mix-blend-mode: multiply;fill: #f1e5f9 } 
		.s6 { mix-blend-mode: multiply;fill: #eee0f8 } 
		.s7 { mix-blend-mode: multiply;fill: #ebdbf7 } 
		.s8 { mix-blend-mode: multiply;fill: #e8d6f6 } 
		.s9 { mix-blend-mode: multiply;fill: #e5d1f5 } 
		.s10 { mix-blend-mode: multiply;fill: #e2ccf3 } 
		.s11 { mix-blend-mode: multiply;fill: #dfc7f2 } 
		.s12 { mix-blend-mode: multiply;fill: #ddc1f1 } 
		.s13 { mix-blend-mode: multiply;fill: #dabcf0 } 
		.s14 { mix-blend-mode: multiply;fill: #d7b7ef } 
		.s15 { mix-blend-mode: multiply;fill: #d4b2ee } 
		.s16 { mix-blend-mode: multiply;fill: #d1adec } 
		.s17 { mix-blend-mode: multiply;fill: #cea8eb } 
		.s18 { mix-blend-mode: multiply;fill: #cba3ea } 
		.s19 { mix-blend-mode: multiply;fill: #c89ee9 } 
		.s20 { mix-blend-mode: multiply;fill: #c698e8 } 
		.s21 { mix-blend-mode: multiply;fill: #c393e7 } 
		.s22 { mix-blend-mode: multiply;fill: #c08ee5 } 
		.s23 { mix-blend-mode: multiply;fill: #bd89e4 } 
		.s24 { mix-blend-mode: multiply;fill: #ba84e3 } 
		.s25 { mix-blend-mode: multiply;fill: #b77fe2 } 
		.s26 { mix-blend-mode: multiply;fill: #b47ae1 } 
		.s27 { mix-blend-mode: multiply;fill: #b175e0 } 
		.s28 { mix-blend-mode: multiply;fill: #af6fde } 
		.s29 { mix-blend-mode: multiply;fill: #ac6add } 
		.s30 { mix-blend-mode: multiply;fill: #a965dc } 
		.s31 { mix-blend-mode: multiply;fill: #a660db } 
		.s32 { fill: #a660db } 
	</style>
	<g id="Layer 1">
		<g id="&lt;Group&gt;">
			<g id="&lt;Group&gt;">
				<g id="&lt;Group&gt;" style="opacity: .4">
					<path id="&lt;Path&gt;" class="s0" d="m206.2 146.6c0 56.9-46.1 103.1-103.1 103.1-56.9 0-103.1-46.2-103.1-103.1 0-57 46.2-103.1 103.1-103.1 57 0 103.1 46.1 103.1 103.1z"/>
					<path id="&lt;Path&gt;" class="s1" d="m207.6 145.2c0 56.9-46.2 103.1-103.1 103.1-56.9 0-103.1-46.2-103.1-103.1 0-57 46.2-103.1 103.1-103.1 56.9 0 103.1 46.1 103.1 103.1z"/>
					<path id="&lt;Path&gt;" class="s2" d="m209 143.8c0 56.9-46.2 103.1-103.1 103.1-56.9 0-103.1-46.2-103.1-103.1 0-56.9 46.2-103.1 103.1-103.1 56.9 0 103.1 46.2 103.1 103.1z"/>
					<path id="&lt;Path&gt;" class="s3" d="m210.4 142.4c0 56.9-46.2 103.1-103.1 103.1-57 0-103.1-46.2-103.1-103.1 0-56.9 46.1-103.1 103.1-103.1 56.9 0 103.1 46.2 103.1 103.1z"/>
					<path id="&lt;Path&gt;" class="s4" d="m211.8 141c0 57-46.2 103.1-103.1 103.1-57 0-103.1-46.1-103.1-103.1 0-56.9 46.1-103.1 103.1-103.1 56.9 0 103.1 46.2 103.1 103.1z"/>
					<path id="&lt;Path&gt;" class="s5" d="m213.2 139.6c0 57-46.2 103.1-103.1 103.1-57 0-103.1-46.1-103.1-103.1 0-56.9 46.1-103.1 103.1-103.1 56.9 0 103.1 46.2 103.1 103.1z"/>
					<path id="&lt;Path&gt;" class="s6" d="m214.6 138.2c0 57-46.2 103.1-103.1 103.1-57 0-103.1-46.1-103.1-103.1 0-56.9 46.1-103.1 103.1-103.1 56.9 0 103.1 46.2 103.1 103.1z"/>
					<path id="&lt;Path&gt;" class="s7" d="m216 136.8c0 57-46.2 103.1-103.1 103.1-57 0-103.1-46.1-103.1-103.1 0-56.9 46.1-103.1 103.1-103.1 56.9 0 103.1 46.2 103.1 103.1z"/>
					<path id="&lt;Path&gt;" class="s8" d="m217.4 135.4c0 57-46.2 103.1-103.1 103.1-57 0-103.1-46.1-103.1-103.1 0-56.9 46.1-103.1 103.1-103.1 56.9 0 103.1 46.2 103.1 103.1z"/>
					<path id="&lt;Path&gt;" class="s9" d="m218.8 134c0 57-46.2 103.1-103.1 103.1-57 0-103.2-46.1-103.2-103.1 0-56.9 46.2-103.1 103.2-103.1 56.9 0 103.1 46.2 103.1 103.1z"/>
					<path id="&lt;Path&gt;" class="s10" d="m220.2 132.6c0 57-46.2 103.2-103.2 103.2-56.9 0-103.1-46.2-103.1-103.2 0-56.9 46.2-103.1 103.1-103.1 57 0 103.2 46.2 103.2 103.1z"/>
					<path id="&lt;Path&gt;" class="s11" d="m221.5 131.3c0 56.9-46.1 103.1-103.1 103.1-56.9 0-103.1-46.2-103.1-103.1 0-57 46.2-103.2 103.1-103.2 57 0 103.1 46.2 103.1 103.2z"/>
					<path id="&lt;Path&gt;" class="s12" d="m222.9 129.9c0 56.9-46.1 103.1-103.1 103.1-56.9 0-103.1-46.2-103.1-103.1 0-57 46.2-103.1 103.1-103.1 57 0 103.1 46.1 103.1 103.1z"/>
					<path id="&lt;Path&gt;" class="s13" d="m224.3 128.5c0 56.9-46.1 103.1-103.1 103.1-56.9 0-103.1-46.2-103.1-103.1 0-57 46.2-103.1 103.1-103.1 57 0 103.1 46.1 103.1 103.1z"/>
					<path id="&lt;Path&gt;" class="s14" d="m225.7 127.1c0 56.9-46.1 103.1-103.1 103.1-56.9 0-103.1-46.2-103.1-103.1 0-57 46.2-103.1 103.1-103.1 57 0 103.1 46.1 103.1 103.1z"/>
					<path id="&lt;Path&gt;" class="s15" d="m227.1 125.7c0 56.9-46.1 103.1-103.1 103.1-56.9 0-103.1-46.2-103.1-103.1 0-57 46.2-103.1 103.1-103.1 57 0 103.1 46.1 103.1 103.1z"/>
					<path id="&lt;Path&gt;" class="s16" d="m228.5 124.3c0 56.9-46.1 103.1-103.1 103.1-56.9 0-103.1-46.2-103.1-103.1 0-57 46.2-103.1 103.1-103.1 57 0 103.1 46.1 103.1 103.1z"/>
					<path id="&lt;Path&gt;" class="s17" d="m229.9 122.9c0 56.9-46.2 103.1-103.1 103.1-56.9 0-103.1-46.2-103.1-103.1 0-57 46.2-103.1 103.1-103.1 56.9 0 103.1 46.1 103.1 103.1z"/>
					<path id="&lt;Path&gt;" class="s18" d="m231.3 121.5c0 56.9-46.2 103.1-103.1 103.1-56.9 0-103.1-46.2-103.1-103.1 0-56.9 46.2-103.1 103.1-103.1 56.9 0 103.1 46.2 103.1 103.1z"/>
					<path id="&lt;Path&gt;" class="s19" d="m232.7 120.1c0 56.9-46.2 103.1-103.1 103.1-57 0-103.1-46.2-103.1-103.1 0-56.9 46.1-103.1 103.1-103.1 56.9 0 103.1 46.2 103.1 103.1z"/>
					<path id="&lt;Path&gt;" class="s20" d="m234.1 118.7c0 57-46.2 103.1-103.1 103.1-57 0-103.1-46.1-103.1-103.1 0-56.9 46.1-103.1 103.1-103.1 56.9 0 103.1 46.2 103.1 103.1z"/>
					<path id="&lt;Path&gt;" class="s21" d="m235.5 117.3c0 57-46.2 103.1-103.1 103.1-57 0-103.1-46.1-103.1-103.1 0-56.9 46.1-103.1 103.1-103.1 56.9 0 103.1 46.2 103.1 103.1z"/>
					<path id="&lt;Path&gt;" class="s22" d="m236.9 115.9c0 57-46.2 103.1-103.1 103.1-57 0-103.1-46.1-103.1-103.1 0-56.9 46.1-103.1 103.1-103.1 56.9 0 103.1 46.2 103.1 103.1z"/>
					<path id="&lt;Path&gt;" class="s23" d="m238.3 114.5c0 57-46.2 103.1-103.1 103.1-57 0-103.1-46.1-103.1-103.1 0-56.9 46.1-103.1 103.1-103.1 56.9 0 103.1 46.2 103.1 103.1z"/>
					<path id="&lt;Path&gt;" class="s24" d="m239.7 113.1c0 57-46.2 103.1-103.1 103.1-57 0-103.1-46.1-103.1-103.1 0-56.9 46.1-103.1 103.1-103.1 56.9 0 103.1 46.2 103.1 103.1z"/>
					<path id="&lt;Path&gt;" class="s25" d="m241.1 111.7c0 57-46.2 103.1-103.1 103.1-57 0-103.1-46.1-103.1-103.1 0-56.9 46.1-103.1 103.1-103.1 56.9 0 103.1 46.2 103.1 103.1z"/>
					<path id="&lt;Path&gt;" class="s26" d="m242.5 110.3c0 57-46.2 103.2-103.1 103.2-57 0-103.2-46.2-103.2-103.2 0-56.9 46.2-103.1 103.2-103.1 56.9 0 103.1 46.2 103.1 103.1z"/>
					<path id="&lt;Path&gt;" class="s27" d="m243.9 109c0 56.9-46.2 103.1-103.2 103.1-56.9 0-103.1-46.2-103.1-103.1 0-57 46.2-103.2 103.1-103.2 57 0 103.2 46.2 103.2 103.2z"/>
					<path id="&lt;Path&gt;" class="s28" d="m245.2 107.6c0 56.9-46.1 103.1-103.1 103.1-56.9 0-103.1-46.2-103.1-103.1 0-57 46.2-103.1 103.1-103.1 57 0 103.1 46.1 103.1 103.1z"/>
					<path id="&lt;Path&gt;" class="s29" d="m246.6 106.2c0 56.9-46.1 103.1-103.1 103.1-56.9 0-103.1-46.2-103.1-103.1 0-57 46.2-103.1 103.1-103.1 57 0 103.1 46.1 103.1 103.1z"/>
					<path id="&lt;Path&gt;" class="s30" d="m248 104.8c0 56.9-46.1 103.1-103.1 103.1-56.9 0-103.1-46.2-103.1-103.1 0-57 46.2-103.1 103.1-103.1 57 0 103.1 46.1 103.1 103.1z"/>
					<path id="&lt;Path&gt;" class="s31" d="m249.4 103.4c0 56.9-46.1 103.1-103.1 103.1-56.9 0-103.1-46.2-103.1-103.1 0-57 46.2-103.1 103.1-103.1 57 0 103.1 46.1 103.1 103.1z"/>
				</g>
				<path id="&lt;Path&gt;" class="s32" d="m249.4 103.4c0 56.9-46.1 103.1-103.1 103.1-56.9 0-103.1-46.2-103.1-103.1 0-57 46.2-103.1 103.1-103.1 57 0 103.1 46.1 103.1 103.1z"/>
			</g>
		</g>
	</g>
</svg>