<svg version="1.2" xmlns="http://www.w3.org/2000/svg" viewBox="0 0 250 250" width="250" height="250">
	<title>yellow-svg</title>
	<style>
		.s0 { opacity: .1;mix-blend-mode: multiply;fill: #fff5c6 } 
		.s1 { opacity: .2;mix-blend-mode: multiply;fill: #fff3bf } 
		.s2 { opacity: .3;mix-blend-mode: multiply;fill: #fff2b8 } 
		.s3 { opacity: .4;mix-blend-mode: multiply;fill: #fff1b1 } 
		.s4 { opacity: .5;mix-blend-mode: multiply;fill: #fff0aa } 
		.s5 { opacity: .7;mix-blend-mode: multiply;fill: #ffeea3 } 
		.s6 { mix-blend-mode: multiply;fill: #ffed9c } 
		.s7 { mix-blend-mode: multiply;fill: #ffec95 } 
		.s8 { mix-blend-mode: multiply;fill: #ffea8e } 
		.s9 { mix-blend-mode: multiply;fill: #ffe987 } 
		.s10 { mix-blend-mode: multiply;fill: #ffe880 } 
		.s11 { mix-blend-mode: multiply;fill: #ffe679 } 
		.s12 { mix-blend-mode: multiply;fill: #ffe572 } 
		.s13 { mix-blend-mode: multiply;fill: #ffe46b } 
		.s14 { mix-blend-mode: multiply;fill: #ffe364 } 
		.s15 { mix-blend-mode: multiply;fill: #ffe15d } 
		.s16 { mix-blend-mode: multiply;fill: #ffe055 } 
		.s17 { mix-blend-mode: multiply;fill: #ffdf4e } 
		.s18 { mix-blend-mode: multiply;fill: #ffdd47 } 
		.s19 { mix-blend-mode: multiply;fill: #ffdc40 } 
		.s20 { mix-blend-mode: multiply;fill: #ffdb39 } 
		.s21 { mix-blend-mode: multiply;fill: #ffda32 } 
		.s22 { mix-blend-mode: multiply;fill: #ffd82b } 
		.s23 { mix-blend-mode: multiply;fill: #ffd724 } 
		.s24 { fill: #ffd724 } 
	</style>
	<g id="Layer 1">
		<g id="&lt;Group&gt;">
			<g id="&lt;Group&gt;">
				<g id="&lt;Group&gt;" style="opacity: .4">
					<path id="&lt;Path&gt;" class="s0" d="m216.9 136.4c0 57-46.2 103.1-103.1 103.1-57 0-103.1-46.1-103.1-103.1 0-56.9 46.1-103.1 103.1-103.1 56.9 0 103.1 46.2 103.1 103.1z"/>
					<path id="&lt;Path&gt;" class="s1" d="m218.3 135c0 57-46.2 103.1-103.1 103.1-57 0-103.1-46.1-103.1-103.1 0-56.9 46.1-103.1 103.1-103.1 56.9 0 103.1 46.2 103.1 103.1z"/>
					<path id="&lt;Path&gt;" class="s2" d="m219.7 133.6c0 57-46.2 103.2-103.1 103.2-57 0-103.1-46.2-103.1-103.2 0-56.9 46.1-103.1 103.1-103.1 56.9 0 103.1 46.2 103.1 103.1z"/>
					<path id="&lt;Path&gt;" class="s3" d="m221.1 132.3c0 56.9-46.2 103.1-103.1 103.1-57 0-103.2-46.2-103.2-103.1 0-57 46.2-103.2 103.2-103.2 56.9 0 103.1 46.2 103.1 103.2z"/>
					<path id="&lt;Path&gt;" class="s4" d="m222.5 130.9c0 56.9-46.2 103.1-103.2 103.1-56.9 0-103.1-46.2-103.1-103.1 0-57 46.2-103.1 103.1-103.1 57 0 103.2 46.1 103.2 103.1z"/>
					<path id="&lt;Path&gt;" class="s5" d="m223.8 129.5c0 56.9-46.1 103.1-103.1 103.1-56.9 0-103.1-46.2-103.1-103.1 0-57 46.2-103.1 103.1-103.1 57 0 103.1 46.1 103.1 103.1z"/>
					<path id="&lt;Path&gt;" class="s6" d="m225.2 128.1c0 56.9-46.1 103.1-103.1 103.1-56.9 0-103.1-46.2-103.1-103.1 0-57 46.2-103.1 103.1-103.1 57 0 103.1 46.1 103.1 103.1z"/>
					<path id="&lt;Path&gt;" class="s7" d="m226.6 126.7c0 56.9-46.1 103.1-103.1 103.1-56.9 0-103.1-46.2-103.1-103.1 0-57 46.2-103.1 103.1-103.1 57 0 103.1 46.1 103.1 103.1z"/>
					<path id="&lt;Path&gt;" class="s8" d="m228 125.3c0 56.9-46.1 103.1-103.1 103.1-56.9 0-103.1-46.2-103.1-103.1 0-57 46.2-103.1 103.1-103.1 57 0 103.1 46.1 103.1 103.1z"/>
					<path id="&lt;Path&gt;" class="s9" d="m229.4 123.9c0 56.9-46.1 103.1-103.1 103.1-56.9 0-103.1-46.2-103.1-103.1 0-57 46.2-103.1 103.1-103.1 57 0 103.1 46.1 103.1 103.1z"/>
					<path id="&lt;Path&gt;" class="s10" d="m230.8 122.5c0 56.9-46.1 103.1-103.1 103.1-56.9 0-103.1-46.2-103.1-103.1 0-56.9 46.2-103.1 103.1-103.1 57 0 103.1 46.2 103.1 103.1z"/>
					<path id="&lt;Path&gt;" class="s11" d="m232.2 121.1c0 56.9-46.2 103.1-103.1 103.1-56.9 0-103.1-46.2-103.1-103.1 0-56.9 46.2-103.1 103.1-103.1 56.9 0 103.1 46.2 103.1 103.1z"/>
					<path id="&lt;Path&gt;" class="s12" d="m233.6 119.7c0 57-46.2 103.1-103.1 103.1-56.9 0-103.1-46.1-103.1-103.1 0-56.9 46.2-103.1 103.1-103.1 56.9 0 103.1 46.2 103.1 103.1z"/>
					<path id="&lt;Path&gt;" class="s13" d="m235 118.3c0 57-46.2 103.1-103.1 103.1-57 0-103.1-46.1-103.1-103.1 0-56.9 46.1-103.1 103.1-103.1 56.9 0 103.1 46.2 103.1 103.1z"/>
					<path id="&lt;Path&gt;" class="s14" d="m236.4 116.9c0 57-46.2 103.1-103.1 103.1-57 0-103.1-46.1-103.1-103.1 0-56.9 46.1-103.1 103.1-103.1 56.9 0 103.1 46.2 103.1 103.1z"/>
					<path id="&lt;Path&gt;" class="s15" d="m237.8 115.5c0 57-46.2 103.1-103.1 103.1-57 0-103.1-46.1-103.1-103.1 0-56.9 46.1-103.1 103.1-103.1 56.9 0 103.1 46.2 103.1 103.1z"/>
					<path id="&lt;Path&gt;" class="s16" d="m239.2 114.1c0 57-46.2 103.1-103.1 103.1-57 0-103.1-46.1-103.1-103.1 0-56.9 46.1-103.1 103.1-103.1 56.9 0 103.1 46.2 103.1 103.1z"/>
					<path id="&lt;Path&gt;" class="s17" d="m240.6 112.7c0 57-46.2 103.1-103.1 103.1-57 0-103.1-46.1-103.1-103.1 0-56.9 46.1-103.1 103.1-103.1 56.9 0 103.1 46.2 103.1 103.1z"/>
					<path id="&lt;Path&gt;" class="s18" d="m242 111.3c0 57-46.2 103.2-103.1 103.2-57 0-103.1-46.2-103.1-103.2 0-56.9 46.1-103.1 103.1-103.1 56.9 0 103.1 46.2 103.1 103.1z"/>
					<path id="&lt;Path&gt;" class="s19" d="m243.4 110c0 56.9-46.2 103.1-103.1 103.1-57 0-103.1-46.2-103.1-103.1 0-57 46.1-103.2 103.1-103.2 56.9 0 103.1 46.2 103.1 103.2z"/>
					<path id="&lt;Path&gt;" class="s20" d="m244.8 108.6c0 56.9-46.2 103.1-103.2 103.1-56.9 0-103.1-46.2-103.1-103.1 0-57 46.2-103.1 103.1-103.1 57 0 103.2 46.1 103.2 103.1z"/>
					<path id="&lt;Path&gt;" class="s21" d="m246.1 107.2c0 56.9-46.1 103.1-103.1 103.1-56.9 0-103.1-46.2-103.1-103.1 0-57 46.2-103.1 103.1-103.1 57 0 103.1 46.1 103.1 103.1z"/>
					<path id="&lt;Path&gt;" class="s22" d="m247.5 105.8c0 56.9-46.1 103.1-103.1 103.1-56.9 0-103.1-46.2-103.1-103.1 0-57 46.2-103.1 103.1-103.1 57 0 103.1 46.1 103.1 103.1z"/>
					<path id="&lt;Path&gt;" class="s23" d="m248.9 104.4c0 56.9-46.1 103.1-103.1 103.1-56.9 0-103.1-46.2-103.1-103.1 0-57 46.2-103.1 103.1-103.1 57 0 103.1 46.1 103.1 103.1z"/>
				</g>
				<path id="&lt;Path&gt;" class="s24" d="m248.9 104.4c0 56.9-46.1 103.1-103.1 103.1-56.9 0-103.1-46.2-103.1-103.1 0-57 46.2-103.1 103.1-103.1 57 0 103.1 46.1 103.1 103.1z"/>
			</g>
		</g>
	</g>
</svg>